HIERARCHY
ROOT hips
{
	OFFSET -0.003675 0.299928 -0.021708
	CHANNELS 6 Xposition Yposition Zposition Xrotation Yrotation Zrotation
	JOINT LowerBack
	{
		OFFSET 0.000919 0.177588 0.009275
		CHANNELS 3 Xrotation Yrotation Zrotation
		JOINT spine
		{
			OFFSET 0.000919 0.177588 0.009275
			CHANNELS 3 Xrotation Yrotation Zrotation
			JOINT chest
			{
				OFFSET 0.000456 0.100015 0.004638
				CHANNELS 3 Xrotation Yrotation Zrotation
				JOINT neck
				{
					OFFSET 0.000456 0.100015 0.004638
					CHANNELS 3 Xrotation Yrotation Zrotation
					JOINT head
					{
						OFFSET 0.000924 0.155147 0.009274
						CHANNELS 6 Xposition Yposition Zposition Xrotation Yrotation Zrotation
						End Site
						{
							OFFSET 0.000000 0.153400 0.000000
						}
					}
				}
				JOINT shoulder.L
				{
					OFFSET 0.019937 0.078966 0.057518
					CHANNELS 6 Xposition Yposition Zposition Yrotation Xrotation Zrotation
					JOINT upper_arm.L
					{
						OFFSET 0.177024 -0.020465 -0.095062
						CHANNELS 6 Xposition Yposition Zposition Xrotation Yrotation Zrotation
						JOINT forearm.L
						{
							OFFSET 0.247100 -0.135500 -0.061800
							CHANNELS 3 Xrotation Yrotation Zrotation
							JOINT hand.L
							{
								OFFSET 0.217000 -0.143000 0.039300
								CHANNELS 3 Xrotation Yrotation Zrotation
								JOINT palm.01.L
								{
									OFFSET 0.021770 -0.038291 0.012954
									CHANNELS 6 Xposition Yposition Zposition Yrotation Xrotation Zrotation
									JOINT f_index.01.L
									{
										OFFSET 0.053215 -0.044137 0.008236
										CHANNELS 3 Xrotation Yrotation Zrotation
										JOINT f_index.02.L
										{
											OFFSET 0.036108 -0.024723 -0.010656
											CHANNELS 3 Xrotation Yrotation Zrotation
											JOINT f_index.03.L
											{
												OFFSET 0.021342 -0.014948 -0.010846
												CHANNELS 3 Xrotation Yrotation Zrotation
												End Site
												{
													OFFSET 0.015600 -0.009860 -0.013421
												}
											}
										}
									}
									JOINT thumb.01.L
									{
										OFFSET -0.009090 -0.002348 -0.024223
										CHANNELS 6 Xposition Yposition Zposition Xrotation Yrotation Zrotation
										JOINT thumb.02.L
										{
											OFFSET 0.019713 -0.035076 -0.011120
											CHANNELS 3 Xrotation Yrotation Zrotation
											JOINT thumb.03.L
											{
												OFFSET 0.024877 -0.021748 -0.005176
												CHANNELS 3 Xrotation Yrotation Zrotation
												End Site
												{
													OFFSET 0.016125 -0.013029 -0.001569
												}
											}
										}
									}
								}
								JOINT palm.02.L
								{
									OFFSET 0.032823 -0.025104 0.012281
									CHANNELS 6 Xposition Yposition Zposition Yrotation Xrotation Zrotation
									JOINT f_middle.01.L
									{
										OFFSET 0.055723 -0.038469 0.008037
										CHANNELS 3 Xrotation Yrotation Zrotation
										JOINT f_middle.02.L
										{
											OFFSET 0.038167 -0.027473 -0.015582
											CHANNELS 3 Xrotation Yrotation Zrotation
											JOINT f_middle.03.L
											{
												OFFSET 0.021707 -0.016587 -0.017037
												CHANNELS 3 Xrotation Yrotation Zrotation
												End Site
												{
													OFFSET 0.014112 -0.010584 -0.014294
												}
											}
										}
									}
								}
								JOINT palm.03.L
								{
									OFFSET 0.039230 -0.011402 0.008390
									CHANNELS 6 Xposition Yposition Zposition Yrotation Xrotation Zrotation
									JOINT f_ring.01.L
									{
										OFFSET 0.061796 -0.031470 0.007910
										CHANNELS 3 Xrotation Yrotation Zrotation
										JOINT f_ring.02.L
										{
											OFFSET 0.033092 -0.023401 -0.019127
											CHANNELS 3 Xrotation Yrotation Zrotation
											JOINT f_ring.03.L
											{
												OFFSET 0.021392 -0.015362 -0.017824
												CHANNELS 3 Xrotation Yrotation Zrotation
												End Site
												{
													OFFSET 0.008670 -0.007297 -0.014686
												}
											}
										}
									}
								}
								JOINT palm.04.L
								{
									OFFSET 0.043417 0.002450 0.002889
									CHANNELS 6 Xposition Yposition Zposition Yrotation Xrotation Zrotation
									JOINT f_pinky.01.L
									{
										OFFSET 0.069986 -0.026156 0.003627
										CHANNELS 3 Xrotation Yrotation Zrotation
										JOINT f_pinky.02.L
										{
											OFFSET 0.018520 -0.012813 -0.016429
											CHANNELS 3 Xrotation Yrotation Zrotation
											JOINT f_pinky.03.L
											{
												OFFSET 0.013822 -0.009796 -0.014947
												CHANNELS 3 Xrotation Yrotation Zrotation
												End Site
												{
													OFFSET 0.007238 -0.006103 -0.011657
												}
											}
										}
									}
								}
							}
						}
					}
				}
				JOINT shoulder.R
				{
					OFFSET -0.016662 0.078957 0.057696
					CHANNELS 6 Xposition Yposition Zposition Yrotation Xrotation Zrotation
					JOINT upper_arm.R
					{
						OFFSET -0.176972 -0.020537 -0.095144
						CHANNELS 6 Xposition Yposition Zposition Xrotation Yrotation Zrotation
						JOINT forearm.R
						{
							OFFSET -0.247100 -0.135500 -0.061800
							CHANNELS 3 Xrotation Yrotation Zrotation
							JOINT hand.R
							{
								OFFSET -0.217000 -0.143000 0.039300
								CHANNELS 3 Xrotation Yrotation Zrotation
								JOINT palm.01.R
								{
									OFFSET -0.021773 -0.038278 0.012988
									CHANNELS 6 Xposition Yposition Zposition Yrotation Xrotation Zrotation
									JOINT f_index.01.R
									{
										OFFSET -0.053212 -0.044139 0.008249
										CHANNELS 3 Xrotation Yrotation Zrotation
										JOINT f_index.02.R
										{
											OFFSET -0.036049 -0.024835 -0.010634
											CHANNELS 3 Xrotation Yrotation Zrotation
											JOINT f_index.03.R
											{
												OFFSET -0.021371 -0.014881 -0.010866
												CHANNELS 3 Xrotation Yrotation Zrotation
												End Site
												{
													OFFSET -0.015584 -0.009883 -0.013422
												}
											}
										}
									}
									JOINT thumb.01.R
									{
										OFFSET 0.009113 -0.002381 -0.024211
										CHANNELS 6 Xposition Yposition Zposition Xrotation Yrotation Zrotation
										JOINT thumb.02.R
										{
											OFFSET -0.019694 -0.035097 -0.011088
											CHANNELS 3 Xrotation Yrotation Zrotation
											JOINT thumb.03.R
											{
												OFFSET -0.024867 -0.021762 -0.005168
												CHANNELS 3 Xrotation Yrotation Zrotation
												End Site
												{
													OFFSET -0.016120 -0.013036 -0.001565
												}
											}
										}
									}
								}
								JOINT palm.02.R
								{
									OFFSET -0.032828 -0.025095 0.012286
									CHANNELS 6 Xposition Yposition Zposition Yrotation Xrotation Zrotation
									JOINT f_middle.01.R
									{
										OFFSET -0.055721 -0.038472 0.008040
										CHANNELS 3 Xrotation Yrotation Zrotation
										JOINT f_middle.02.R
										{
											OFFSET -0.038101 -0.027593 -0.015557
											CHANNELS 3 Xrotation Yrotation Zrotation
											JOINT f_middle.03.R
											{
												OFFSET -0.021730 -0.016530 -0.017054
												CHANNELS 3 Xrotation Yrotation Zrotation
												End Site
												{
													OFFSET -0.014096 -0.010608 -0.014293
												}
											}
										}
									}
								}
								JOINT palm.03.R
								{
									OFFSET -0.039192 -0.011488 0.008390
									CHANNELS 6 Xposition Yposition Zposition Yrotation Xrotation Zrotation
									JOINT f_ring.01.R
									{
										OFFSET -0.061839 -0.031387 0.007876
										CHANNELS 3 Xrotation Yrotation Zrotation
										JOINT f_ring.02.R
										{
											OFFSET -0.033068 -0.023437 -0.019125
											CHANNELS 3 Xrotation Yrotation Zrotation
											JOINT f_ring.03.R
											{
												OFFSET -0.021371 -0.015393 -0.017822
												CHANNELS 3 Xrotation Yrotation Zrotation
												End Site
												{
													OFFSET -0.008654 -0.007321 -0.014684
												}
											}
										}
									}
								}
								JOINT palm.04.R
								{
									OFFSET -0.043421 0.002443 0.002845
									CHANNELS 6 Xposition Yposition Zposition Yrotation Xrotation Zrotation
									JOINT f_pinky.01.R
									{
										OFFSET -0.069983 -0.026169 0.003599
										CHANNELS 3 Xrotation Yrotation Zrotation
										JOINT f_pinky.02.R
										{
											OFFSET -0.018501 -0.012842 -0.016428
											CHANNELS 3 Xrotation Yrotation Zrotation
											JOINT f_pinky.03.R
											{
												OFFSET -0.013806 -0.009821 -0.014946
												CHANNELS 3 Xrotation Yrotation Zrotation
												End Site
												{
													OFFSET -0.007226 -0.006121 -0.011655
												}
											}
										}
									}
								}
							}
						}
					}
				}
			}
		}
	}
	JOINT pelvis.L
	{
		OFFSET 0.000000 0.000000 0.000000
		CHANNELS 6 Xposition Yposition Zposition Xrotation Yrotation Zrotation
		JOINT thigh.L
		{
			OFFSET 0.101675 0.001054 -0.000000
			CHANNELS 3 Xrotation Yrotation Zrotation
			JOINT shin.L
			{
				OFFSET 0.000000 -0.534800 0.041000
				CHANNELS 3 Xrotation Yrotation Zrotation
				JOINT foot.L
				{
					OFFSET 0.000000 -0.452000 -0.044800
					CHANNELS 3 Xrotation Yrotation Zrotation
					JOINT toe.L
					{
						OFFSET -0.000000 -0.068500 0.109600
						CHANNELS 3 Xrotation Yrotation Zrotation
						End Site
						{
							OFFSET -0.000000 0.000000 0.067200
						}
					}
				}
				JOINT heel.L
				{
					OFFSET 0.000000 -0.452000 -0.044800
					CHANNELS 3 Xrotation Yrotation Zrotation
					JOINT heel.02.L
					{
						OFFSET -0.038000 -0.085200 0.016200
						CHANNELS 6 Xposition Yposition Zposition Xrotation Yrotation Zrotation
						End Site
						{
							OFFSET 0.080000 -0.000000 0.000000
						}
					}
				}
			}
		}
	}
	JOINT pelvis.R
	{
		OFFSET 0.000000 0.000000 0.000000
		CHANNELS 6 Xposition Yposition Zposition Xrotation Yrotation Zrotation
		JOINT thigh.R
		{
			OFFSET -0.094325 0.001054 0.000000
			CHANNELS 3 Xrotation Yrotation Zrotation
			JOINT shin.R
			{
				OFFSET 0.000000 -0.534800 0.041000
				CHANNELS 3 Xrotation Yrotation Zrotation
				JOINT foot.R
				{
					OFFSET 0.000000 -0.452000 -0.044800
					CHANNELS 3 Xrotation Yrotation Zrotation
					JOINT toe.R
					{
						OFFSET -0.000000 -0.068500 0.109600
						CHANNELS 3 Xrotation Yrotation Zrotation
						End Site
						{
							OFFSET -0.000000 0.000000 0.067200
						}
					}
				}
				JOINT heel.R
				{
					OFFSET 0.000000 -0.452000 -0.044800
					CHANNELS 3 Xrotation Yrotation Zrotation
					JOINT heel.02.R
					{
						OFFSET 0.038000 -0.085200 0.016200
						CHANNELS 6 Xposition Yposition Zposition Xrotation Yrotation Zrotation
						End Site
						{
							OFFSET -0.080000 0.000000 -0.000000
						}
					}
				}
			}
		}
	}
}
MOTION
Frames: 4
Frame Time: 0.041667
-0.003675 0.299928 -0.021708 0.000000 -0.000000 0.000000 -0.000001 0.000000 0.000000 -0.000000 0.000000 0.000000 -0.000000 0.000000 0.000000 -0.000000 -0.000000 -0.000000 0.000924 0.155147 0.009274 -0.000001 -0.000000 -0.000000 0.019937 0.078966 0.057518 0.000001 0.000001 -0.000005 0.177024 -0.020465 -0.095062 -0.000006 -0.000003 0.000015 -0.000009 -0.000004 -0.000009 -0.000000 0.000000 0.000001 0.021770 -0.038291 0.012954 0.000001 -0.000001 0.000001 -0.000001 -0.000001 -0.000002 -0.000001 -0.000000 0.000007 -0.000000 0.000000 0.000003 -0.009090 -0.002348 -0.024224 -0.000002 0.000001 0.000001 0.000001 -0.000001 0.000001 -0.000000 0.000000 -0.000001 0.032823 -0.025104 0.012281 0.000000 -0.000000 0.000000 0.000001 0.000004 -0.000003 -0.000001 -0.000000 -0.000000 -0.000001 -0.000003 0.000003 0.039230 -0.011402 0.008390 -0.000000 -0.000000 0.000008 0.000001 0.000001 -0.000000 -0.000001 0.000003 -0.000001 0.000002 0.000002 -0.000000 0.043417 0.002450 0.002889 -0.000000 0.000001 0.000002 -0.000001 -0.000003 0.000001 -0.000000 0.000003 -0.000000 -0.000000 -0.000003 0.000001 -0.016662 0.078956 0.057696 -0.000001 0.000002 0.000011 -0.176972 -0.020537 -0.095144 0.000001 -0.000003 -0.000005 -0.000006 0.000005 -0.000014 -0.000001 -0.000000 0.000000 -0.021773 -0.038278 0.012988 0.000000 -0.000001 -0.000003 -0.000001 0.000001 -0.000003 -0.000001 -0.000000 0.000001 0.000001 0.000002 0.000007 0.009113 -0.002381 -0.024211 0.000002 -0.000001 0.000004 -0.000000 0.000001 0.000002 0.000000 0.000000 -0.000003 -0.032828 -0.025095 0.012286 0.000001 -0.000001 -0.000001 -0.000001 0.000003 -0.000003 -0.000002 0.000004 -0.000001 0.000001 -0.000002 -0.000000 -0.039192 -0.011488 0.008390 0.000000 0.000000 0.000001 -0.000000 0.000003 -0.000003 -0.000001 0.000001 0.000002 -0.000001 0.000000 -0.000003 -0.043421 0.002443 0.002844 -0.000000 -0.000001 0.000000 -0.000007 0.000003 -0.000002 -0.000003 -0.000000 -0.000000 0.000001 -0.000000 0.000001 -0.000000 0.000000 -0.000000 -0.000001 -0.000000 0.000001 0.000009 -0.000202 0.000014 -0.000026 0.000202 -0.000015 0.000000 -0.000000 -0.000000 0.000002 -0.000000 -0.000000 0.000000 0.000000 -0.000000 -0.038000 -0.085200 0.016200 0.000000 0.000000 0.000000 0.000000 -0.000000 -0.000000 -0.000001 0.000000 -0.000004 0.000008 -0.000013 0.000005 -0.000012 0.000013 -0.000001 -0.000003 -0.000000 -0.000000 0.000000 -0.000000 -0.000000 0.000002 -0.000000 -0.000000 0.038000 -0.085200 0.016200 0.000002 -0.000000 0.000000 
-0.002791 0.256790 -0.019103 4.484497 1.964085 -0.378477 -0.000001 -0.000000 -0.000000 0.000000 0.000000 0.000000 0.000000 0.000000 0.000000 0.000000 0.000000 0.000000 0.000924 0.155148 0.009274 6.994077 -0.008414 3.036051 0.019937 0.078966 0.057518 2.834770 2.968696 27.195570 0.177024 -0.020465 -0.095062 -3.392915 11.701678 -70.505201 -3.150828 -5.936331 -13.726589 -0.000001 -0.000004 0.000000 0.021770 -0.038291 0.012954 -0.000001 -0.000000 -0.000002 -0.000001 -0.000001 0.000007 -0.000000 -0.000000 0.000010 -0.000003 0.000002 0.000003 -0.009090 -0.002348 -0.024224 -0.000000 -0.000002 0.000003 0.000000 -0.000001 0.000005 0.000001 0.000001 -0.000001 0.032823 -0.025104 0.012281 -0.000002 0.000002 0.000002 0.000002 0.000001 -0.000003 -0.000003 -0.000007 0.000006 -0.000001 0.000001 0.000001 0.039230 -0.011402 0.008390 -0.000001 -0.000000 0.000004 0.000002 0.000002 -0.000000 -0.000003 0.000003 0.000001 0.000002 -0.000001 0.000005 0.043417 0.002450 0.002889 -0.000001 -0.000000 -0.000003 -0.000002 -0.000003 0.000001 -0.000002 0.000001 -0.000001 -0.000001 -0.000005 0.000000 -0.016662 0.078957 0.057696 -1.906653 2.587110 -26.055942 -0.176972 -0.020537 -0.095144 -7.564460 -12.127394 68.020788 -3.516510 6.230397 13.317771 0.000001 0.000002 -0.000002 -0.021773 -0.038278 0.012988 0.000000 0.000001 -0.000002 -0.000000 0.000001 0.000001 -0.000002 -0.000000 -0.000003 -0.000001 0.000000 -0.000001 0.009113 -0.002381 -0.024211 0.000001 -0.000003 0.000000 -0.000000 -0.000001 -0.000001 -0.000000 -0.000001 -0.000003 -0.032828 -0.025095 0.012286 0.000003 0.000001 -0.000003 0.000003 0.000002 -0.000001 0.000001 -0.000001 -0.000001 -0.000000 -0.000000 -0.000002 -0.039192 -0.011488 0.008390 0.000001 0.000001 -0.000000 0.000002 0.000002 -0.000005 0.000000 -0.000001 0.000002 0.000000 0.000003 0.000003 -0.043421 0.002443 0.002845 -0.000001 0.000000 0.000000 -0.000003 0.000002 -0.000001 0.000000 -0.000001 -0.000002 -0.000001 0.000001 -0.000002 0.000000 0.000000 -0.000000 -1.603299 0.029970 -1.384037 -2.528200 -0.181124 -1.896465 34.864366 -0.162531 1.642155 0.000000 -0.000000 0.000000 -0.000001 -0.000000 0.000000 0.000005 -0.000000 0.000000 -0.038000 -0.085200 0.016200 -0.000002 -0.000000 0.000000 -0.000000 0.000000 -0.000000 -1.567955 0.029485 -0.149863 1.544299 0.314368 3.857710 32.772177 0.225290 -2.272813 -0.000002 -0.000001 -0.000000 0.000002 0.000000 0.000000 0.000000 -0.000001 0.000000 0.038000 -0.085200 0.016200 -0.000003 -0.000000 0.000000 
-0.002711 0.257125 -0.021377 4.496837 3.109287 -0.323340 -0.000000 -0.000000 -0.000000 -0.000000 -0.000000 0.000000 -0.000000 -0.000000 0.000000 -0.000000 -0.000000 -0.000000 0.000924 0.155147 0.009274 6.546316 -0.007853 3.446803 0.019937 0.078966 0.057518 2.927768 2.844737 27.195974 0.177024 -0.020466 -0.095062 -2.884819 11.670973 -69.744674 -4.044794 -6.695184 -14.135309 -0.000001 -0.000000 0.000001 0.021770 -0.038291 0.012954 0.000001 0.000001 -0.000001 -0.000002 -0.000002 -0.000000 0.000002 -0.000000 0.000009 -0.000002 0.000001 -0.000001 -0.009090 -0.002348 -0.024223 -0.000003 -0.000003 0.000003 0.000001 -0.000000 0.000001 0.000001 0.000001 0.000001 0.032823 -0.025104 0.012281 -0.000000 -0.000000 0.000007 0.000001 0.000001 -0.000003 0.000001 0.000000 0.000001 -0.000001 0.000003 0.000003 0.039230 -0.011402 0.008390 0.000001 0.000001 0.000001 0.000005 0.000003 0.000001 -0.000000 0.000005 0.000001 0.000001 -0.000003 0.000001 0.043417 0.002450 0.002889 -0.000002 -0.000000 -0.000002 -0.000002 -0.000004 -0.000001 0.000002 -0.000004 -0.000001 -0.000001 0.000002 0.000000 -0.016662 0.078956 0.057696 -1.594410 2.348040 -25.889173 -0.176972 -0.020537 -0.095144 -8.130566 -12.248247 67.218583 -3.309454 6.017904 13.032097 0.000001 0.000001 0.000000 -0.021773 -0.038278 0.012988 -0.000001 -0.000003 -0.000005 -0.000000 0.000001 0.000004 -0.000000 -0.000000 -0.000001 0.000001 -0.000001 0.000002 0.009113 -0.002381 -0.024211 0.000001 -0.000003 0.000004 0.000001 -0.000003 0.000002 0.000002 0.000000 -0.000006 -0.032828 -0.025095 0.012286 -0.000000 -0.000001 -0.000003 -0.000001 0.000002 0.000001 -0.000000 0.000000 0.000002 -0.000003 -0.000001 -0.000002 -0.039192 -0.011488 0.008390 -0.000002 -0.000002 0.000001 0.000003 -0.000000 0.000000 0.000001 -0.000003 -0.000002 -0.000000 -0.000001 -0.000000 -0.043421 0.002443 0.002844 0.000001 -0.000002 -0.000003 -0.000002 0.000004 0.000001 -0.000000 -0.000006 0.000004 -0.000001 0.000000 0.000003 0.000000 0.000000 -0.000000 -1.628892 0.033320 -1.421074 -9.946968 -0.189102 -1.533095 45.249204 0.016535 -0.164721 0.000002 0.000000 0.000001 0.000000 -0.000000 0.000001 0.000000 0.000000 0.000000 -0.038000 -0.085200 0.016200 -0.000000 0.000000 0.000000 -0.000000 0.000000 0.000000 -1.592890 0.032800 -0.186912 -1.505303 0.316635 3.651332 37.890799 0.130239 -1.313235 0.000002 0.000000 0.000000 -0.000001 -0.000000 -0.000000 0.000007 0.000000 -0.000000 0.038000 -0.085200 0.016200 0.000001 0.000000 0.000000 
-0.002709 0.256880 -0.022275 5.713367 2.682068 -0.167697 -0.000001 0.000000 -0.000000 0.000001 -0.000000 0.000000 0.000000 -0.000001 0.000000 -0.000000 -0.000001 0.000000 0.000924 0.155148 0.009274 4.322276 -0.003692 3.248562 0.019937 0.078966 0.057518 2.473868 2.699190 27.342325 0.177024 -0.020465 -0.095062 -2.702575 11.732016 -69.333045 -4.475093 -7.029716 -14.242414 -0.000000 -0.000002 -0.000002 0.021770 -0.038291 0.012954 0.000001 -0.000000 -0.000001 -0.000001 -0.000000 0.000001 -0.000000 -0.000002 0.000010 -0.000002 0.000003 -0.000000 -0.009090 -0.002348 -0.024224 -0.000003 -0.000001 0.000003 -0.000001 0.000002 -0.000000 0.000002 -0.000001 -0.000002 0.032823 -0.025104 0.012281 -0.000001 -0.000000 0.000005 0.000002 0.000003 -0.000003 -0.000005 -0.000003 0.000007 -0.000001 -0.000002 0.000004 0.039230 -0.011402 0.008390 0.000002 -0.000001 0.000003 0.000004 0.000002 0.000001 -0.000000 0.000003 0.000001 -0.000001 0.000002 0.000002 0.043417 0.002450 0.002889 0.000001 -0.000001 -0.000007 -0.000000 -0.000003 0.000001 -0.000003 0.000003 0.000001 -0.000002 -0.000004 0.000002 -0.016662 0.078956 0.057696 -1.550229 2.072194 -25.466429 -0.176972 -0.020537 -0.095144 -7.511437 -12.300237 67.298025 -2.781593 5.488775 12.620132 -0.000001 0.000000 0.000002 -0.021773 -0.038278 0.012988 0.000001 -0.000001 -0.000002 -0.000001 0.000001 -0.000003 -0.000001 0.000000 0.000001 -0.000003 0.000003 -0.000000 0.009114 -0.002381 -0.024211 -0.000000 -0.000002 -0.000001 -0.000001 -0.000000 -0.000003 0.000001 0.000000 -0.000003 -0.032828 -0.025095 0.012286 0.000002 -0.000000 -0.000001 0.000002 0.000002 -0.000001 0.000001 -0.000000 -0.000001 -0.000003 -0.000001 -0.000006 -0.039192 -0.011488 0.008390 0.000002 0.000001 0.000001 0.000000 0.000006 -0.000003 -0.000001 -0.000001 -0.000004 0.000004 -0.000003 -0.000002 -0.043421 0.002443 0.002845 0.000001 0.000000 0.000000 -0.000003 0.000004 -0.000003 -0.000004 0.000003 0.000002 -0.000002 0.000004 -0.000002 0.000000 0.000000 -0.000000 -1.652479 0.044693 -1.556892 -12.480927 -0.192908 -1.422681 46.943743 0.024582 -0.245912 0.000000 0.000000 0.000000 -0.000003 0.000000 0.000000 0.000000 0.000000 0.000000 -0.038000 -0.085200 0.016200 -0.000004 0.000000 -0.000000 0.000000 0.000000 -0.000000 -1.615613 0.044073 -0.322738 -5.294639 0.295039 3.076983 42.004014 0.120486 -1.214746 0.000002 0.000000 -0.000000 0.000001 0.000000 0.000000 0.000007 0.000000 0.000000 0.038000 -0.085200 0.016200 0.000001 -0.000000 -0.000000 
